<svg width="37" height="37" viewBox="0 0 37 37" fill="none" xmlns="http://www.w3.org/2000/svg">
<path d="M33.8897 29.9309C34.2319 29.9309 34.5248 29.9393 34.8163 29.9295C35.3091 29.9126 35.6879 30.097 35.9006 30.5519C36.109 30.9969 35.9893 31.394 35.6823 31.7517C34.6754 32.9247 33.67 34.0992 32.6631 35.2722C32.3054 35.6904 31.9435 36.1044 31.5887 36.5269C31.338 36.824 31.031 36.9648 30.6381 36.9648C23.6323 36.962 16.6251 36.9648 9.61928 36.9606C7.87734 36.9606 6.47617 35.5496 6.47195 33.8048C6.46491 30.3139 6.47054 26.8216 6.47054 23.3306C6.47054 23.2039 6.47054 23.0757 6.47054 22.9194C6.33817 22.9124 6.22551 22.9025 6.11286 22.9025C5.15246 22.9025 4.19207 22.9039 3.23027 22.9025C1.39256 22.8955 0.00407448 21.5155 0.00266628 19.682C-0.000150127 16.4361 -0.00155833 13.1916 0.00266628 9.94566C0.00407448 8.11499 1.39538 6.73636 3.23449 6.73073C4.29909 6.72791 5.36229 6.73073 6.47054 6.73073C6.47054 6.05479 6.45787 5.40279 6.47477 4.7508C6.48744 4.27342 6.47617 3.78195 6.59024 3.32429C6.93807 1.90904 8.18996 0.968364 9.65871 0.966956C16.6645 0.96414 23.6717 0.96414 30.6775 0.966956C32.5082 0.966956 33.8882 2.35826 33.8882 4.2016C33.8897 12.6142 33.8882 21.0254 33.8882 29.438V29.9309H33.8897ZM8.58003 22.9025V23.2884C8.58003 26.7328 8.58003 30.1773 8.58003 33.6218C8.58003 34.4399 8.99263 34.8525 9.80939 34.8525C15.89 34.8525 21.9706 34.8525 28.0498 34.8525H28.4216C28.247 34.6455 28.1231 34.4949 27.9963 34.347C27.257 33.4852 26.5177 32.6219 25.7756 31.7615C25.4672 31.4039 25.3405 31.0081 25.5432 30.5632C25.7502 30.1083 26.1248 29.9154 26.6191 29.9295C26.9289 29.9393 27.2401 29.9309 27.5598 29.9309C27.5598 28.1636 27.5443 26.454 27.5753 24.7445C27.5809 24.4572 27.7189 24.1122 27.9147 23.908C28.0907 23.7249 28.4301 23.6249 28.7004 23.6165C29.7143 23.5841 30.7311 23.6038 31.7788 23.6038V23.1898C31.7788 16.9106 31.7788 10.6315 31.7788 4.35228C31.7788 3.46652 31.3831 3.07644 30.4888 3.07644C23.6112 3.07644 16.7349 3.07644 9.85727 3.07644C9.77559 3.07644 9.69251 3.07363 9.61083 3.07644C9.09262 3.1032 8.62368 3.46792 8.59974 3.97629C8.55891 4.88317 8.58848 5.79428 8.58848 6.72932H9.03629C13.8284 6.72932 18.6191 6.72932 23.4112 6.72932C25.3658 6.72932 26.7163 8.08542 26.7177 10.0456C26.7177 13.2211 26.7177 16.3952 26.7177 19.5707C26.7177 21.5492 25.3672 22.8997 23.3901 22.8997C18.6107 22.8997 13.8298 22.8997 9.05037 22.8997H8.58003V22.9025ZM13.3609 20.7916C16.6997 20.7916 20.04 20.7916 23.3788 20.7916C24.1956 20.7916 24.6082 20.3776 24.6082 19.5609C24.6082 16.398 24.6082 13.2338 24.6082 10.071C24.6082 9.25423 24.1956 8.84163 23.3774 8.84163C16.6983 8.84163 10.0206 8.84163 3.34152 8.84163C2.52335 8.84163 2.11215 9.25423 2.11215 10.0724C2.11215 13.224 2.11215 16.3755 2.11215 19.5271C2.11215 20.3917 2.51208 20.7916 3.37813 20.7916C6.70571 20.7916 10.0333 20.7916 13.3609 20.7916ZM32.6251 32.0671C31.8914 31.6714 31.7802 31.4827 31.7802 30.6674C31.7802 29.1451 31.7802 27.6228 31.7802 26.102V25.7316H29.6721V26.1259C29.6721 27.7186 29.6693 29.3099 29.6721 30.9025C29.6721 31.3827 29.4749 31.7334 29.044 31.9502C28.975 31.984 28.9074 32.0178 28.8187 32.0601C29.4595 32.8064 30.0819 33.5302 30.7254 34.2808C31.3774 33.5204 31.9984 32.7966 32.6223 32.0671H32.6251Z" fill="white"/>
<path d="M10.8136 14.825C10.8136 13.6999 10.8122 12.5761 10.8136 11.451C10.815 10.8398 11.0572 10.6004 11.6642 10.5976C12.2852 10.5962 12.9062 10.5878 13.5272 10.599C14.8439 10.6244 15.8733 11.1919 16.4633 12.3706C17.2928 14.0252 17.2857 15.7179 16.3802 17.3471C15.7775 18.4329 14.7974 18.9792 13.5568 19.0243C12.902 19.0482 12.2443 19.037 11.5881 19.0328C11.1009 19.0299 10.8277 18.7568 10.8249 18.2695C10.8192 17.1218 10.8235 15.9727 10.8235 14.825H10.8136ZM12.2556 12.0129V17.6189C12.6584 17.6189 13.0315 17.6189 13.4047 17.6189C14.2778 17.6189 14.9073 17.2148 15.2706 16.4332C15.7705 15.3573 15.7606 14.2561 15.2973 13.1732C15.0044 12.4874 14.4609 12.0776 13.7089 12.0185C13.2343 11.9819 12.7541 12.0115 12.2556 12.0115V12.0129Z" fill="white"/>
<path d="M5.419 15.9559C5.419 16.7642 5.42322 17.5106 5.41759 18.2584C5.41477 18.6667 5.18383 18.9639 4.83741 19.0272C4.40931 19.1061 4.02206 18.7709 4.01502 18.2907C4.00516 17.612 4.0122 16.9332 4.0122 16.2545C4.0122 14.6745 4.0122 13.0959 4.0122 11.5159C4.0122 10.8259 4.24596 10.5907 4.94443 10.6005C5.70345 10.6104 6.47374 10.5611 7.21868 10.6752C8.53676 10.8766 9.49715 12.1341 9.40562 13.4029C9.30564 14.7984 8.26216 15.8658 6.88494 15.9517C6.40896 15.9813 5.93017 15.9559 5.419 15.9559ZM5.43449 14.552C5.89074 14.552 6.32165 14.5703 6.74975 14.5477C7.43273 14.5111 7.94672 14.0014 7.9946 13.3465C8.03966 12.7452 7.56228 12.1228 6.90606 12.0383C6.42727 11.9764 5.9344 12.0256 5.43449 12.0256V14.552Z" fill="white"/>
<path d="M19.8723 12.0045V14.0436C20.2722 14.0436 20.6651 14.0436 21.058 14.0436C21.2566 14.0436 21.4565 14.0422 21.6551 14.0436C22.1494 14.0478 22.4873 14.3407 22.4831 14.7561C22.4789 15.1532 22.1409 15.4461 21.6706 15.449C21.0848 15.4532 20.5004 15.449 19.8723 15.449C19.8653 15.5884 19.8526 15.7109 19.8526 15.8334C19.8484 16.6657 19.8568 17.4965 19.8413 18.3287C19.8343 18.7047 19.5963 18.9765 19.264 19.023C18.9401 19.0695 18.6824 18.9399 18.5359 18.6498C18.4697 18.5203 18.443 18.3569 18.443 18.209C18.4373 15.9475 18.4359 13.6873 18.4416 11.4257C18.4416 10.8526 18.7162 10.5963 19.2921 10.5949C20.1596 10.5935 21.0256 10.5921 21.8931 10.5949C22.3733 10.5963 22.6958 10.8709 22.707 11.2807C22.7183 11.6947 22.3775 11.9975 21.8874 12.0003C21.2228 12.0045 20.5581 12.0003 19.8723 12.0003V12.0045Z" fill="white"/>
</svg>
